<?xml version="1.0" encoding="UTF-8" standalone="no"?>
<!-- Created with Inkscape (http://www.inkscape.org/) -->

<svg
   width="154.06435mm"
   height="170.69957mm"
   viewBox="0 0 154.06435 170.69957"
   version="1.1"
   id="svg1"
   xmlns="http://www.w3.org/2000/svg"
   xmlns:svg="http://www.w3.org/2000/svg">
  <defs
     id="defs1" />
  <g
     id="layer1"
     transform="translate(-35.276757,-84.02235)">
    <path
       style="fill:#000000;stroke-width:0.264583"
       id="path1"
       d="m 35.276877,108.76631 c -0.0083,3.13429 0.422026,6.23209 0.870005,9.32619 0.802103,5.53997 0.520018,3.61284 1.553898,9.98782 3.236643,18.81456 5.381525,37.78737 7.829225,56.71355 1.890265,14.22188 3.94835,28.42069 5.807678,42.64674 0.481391,3.67836 0.967301,7.35616 1.459021,11.03314 0.02487,0.18607 0.513072,3.8809 0.651976,4.34979 0.152945,0.5163 0.453554,0.97679 0.680331,1.46518 2.695892,2.12212 2.384877,2.06805 7.258235,3.76937 0.994381,0.34714 7.502964,1.23798 8.125142,1.31985 4.200173,0.55267 6.32778,0.74123 10.592422,1.18193 8.834522,1.02094 17.717034,1.50506 26.58698,2.09354 8.95181,0.61662 4.56742,0.32043 13.15309,0.88995 8.39339,0.5621 16.79748,0.93791 25.20793,1.09594 2.5152,0.0355 5.03057,0.0562 7.54592,0.0772 1.41867,0.0119 2.79346,0.0182 4.2024,-0.14034 0.2929,-0.15842 0.62747,-0.25668 0.87868,-0.47525 1.18245,-1.02881 1.73915,-3.29294 2.19788,-4.66522 1.1619,-3.4758 1.08088,-3.33154 2.25301,-7.24398 3.66786,-13.18306 7.48903,-26.32621 10.80806,-39.6036 0.74354,-2.97441 1.44057,-5.96025 2.16086,-8.94037 3.48119,-14.38414 6.22802,-28.93123 8.44705,-43.55953 1.38704,-9.53606 2.76729,-19.07137 4.31746,-28.58243 0.48306,-2.92759 0.95524,-5.85619 1.47698,-8.77712 0,0 -3.25446,-1.72524 -3.25446,-1.72524 v 0 c -0.43974,2.95704 -0.83628,5.92 -1.29696,8.87398 -1.49677,9.55354 -2.7251,19.14526 -4.0621,28.72196 -2.10804,14.67495 -4.67163,29.28911 -8.08593,43.7219 -0.71536,2.98094 -1.40148,5.96905 -2.14609,8.94281 -3.31082,13.22254 -7.17664,26.31091 -11.36907,39.27841 -1.23061,3.6474 -1.25592,3.83498 -2.47938,7.1019 -0.44621,1.19145 -1.09666,3.45512 -2.20678,4.32652 -0.22972,0.18031 -0.53002,0.2454 -0.79503,0.3681 -3.80841,0.46344 -7.67863,0.0634 -11.50219,0.17929 -8.29043,-0.10308 -16.57854,-0.35569 -24.85534,-0.85758 -13.28399,-0.79815 -26.583286,-1.55029 -39.810039,-3.05232 -4.156297,-0.45264 -6.581564,-0.67956 -10.682068,-1.26753 -1.535224,-0.22014 -3.069026,-0.45407 -4.594794,-0.73231 -1.238274,-0.2258 -2.439175,-0.8675 -3.694779,-0.77936 -0.385067,0.027 0.97431,0.98911 0.588388,0.99742 -0.599831,0.0129 -1.007549,-0.65169 -1.511323,-0.97754 -0.255181,-0.46184 -0.591421,-0.88742 -0.765541,-1.3855 -0.193601,-0.55382 -0.747175,-4.09944 -0.794935,-4.40277 -0.585488,-3.71842 -1.144876,-7.44117 -1.720339,-11.16116 -2.128412,-14.30266 -4.263573,-28.60437 -6.353104,-42.91275 -2.519886,-18.81723 -4.663223,-37.68289 -7.342677,-56.47915 -0.532818,-4.03444 -0.80347,-6.0151 -1.280795,-9.84778 -0.376465,-3.0228 -0.747757,-6.0587 -0.551714,-9.11178 z" />
    <path
       style="fill:#000000;stroke-width:0.264583"
       id="path2"
       d="m 77.867721,118.57227 c 0.146931,5.51958 0.205816,11.04143 0.312875,16.56213 0.167769,8.05908 0.562602,16.11365 0.93794,24.1658 0.532299,10.48725 0.764069,20.98522 0.882274,31.48419 0.03666,6.73804 0.01982,13.47637 -0.01574,20.21439 -0.01064,3.98021 -0.02238,7.96032 -0.05961,11.94039 -0.06667,1.85872 0.08797,3.71349 0.221104,5.56547 0.06104,0.77522 0.08098,1.55157 0.147535,2.32627 0,0 3.507467,1.74493 3.507467,1.74493 v 0 c -0.08271,-0.77225 -0.07661,-1.54516 -0.140406,-2.31905 -0.192538,-1.8581 -0.380709,-3.7222 -0.351094,-5.59281 -0.03199,-3.99943 -0.03654,-7.99887 -0.05251,-11.99837 -0.05468,-6.79334 -0.139404,-13.58615 -0.295733,-20.37806 -0.193701,-10.47034 -0.428646,-20.93949 -0.705517,-31.40794 -0.41579,-8.05041 -0.873527,-16.10218 -0.960845,-24.16478 -0.07973,-5.45068 -0.12429,-10.9035 0.08616,-16.35215 z" />
    <path
       style="fill:#000000;stroke-width:0.264583"
       id="path3"
       d="m 127.62757,117.27982 c 0.14155,4.75549 0.17372,9.5138 0.20286,14.27109 0.0983,8.60548 -0.073,17.20954 -0.21556,25.81331 -0.14273,5.3336 -0.29904,10.6734 -0.72227,15.99383 -0.18352,2.30705 -0.48125,5.02053 -0.72332,7.33274 -0.51187,4.95689 -1.34251,9.87226 -1.93315,14.81849 -0.56902,4.82229 -1.0376,9.65583 -1.49571,14.48974 -0.30912,4.02226 -0.65149,8.03937 -1.05546,12.05321 -0.1488,1.79718 -0.40679,3.58239 -0.60638,5.37419 0,0 3.44722,1.80077 3.44722,1.80077 v 0 c 0.1672,-1.80844 0.41369,-3.60919 0.52213,-5.42279 0.32879,-4.03195 0.66877,-8.06276 0.97101,-12.09682 0.43128,-4.83157 0.88534,-9.66303 1.49768,-14.47543 0.63996,-4.96337 1.32526,-9.92072 1.78596,-14.90542 0.73776,-7.77886 1.33194,-15.57346 1.38309,-23.39237 0.10136,-8.59803 0.27932,-17.19518 0.26405,-25.79409 0.0289,-4.68837 0.0598,-9.37786 0.20287,-14.06437 z" />
    <path
       style="fill:#000000;stroke-width:0.264583"
       id="path4"
       d="m 39.447464,111.04107 c 4.154355,-0.0898 8.31025,-0.0829 12.465383,-0.0899 5.775458,-0.003 11.548417,-0.20951 17.32303,-0.30036 5.333315,-0.0855 10.665698,-0.1022 15.998071,0.0267 5.570241,0.12781 11.092982,0.90251 16.624002,1.50744 6.38703,0.68935 12.77538,1.35516 19.1737,1.93142 6.27811,0.57322 12.57078,0.87678 18.87108,1.04614 5.74123,0.21367 11.48379,0.0588 17.22499,-0.0533 3.78676,-0.18452 7.58108,-0.2579 11.35559,-0.62803 2.69966,-0.27198 5.40107,-0.51259 8.09854,-0.8066 1.30472,-0.0876 2.59232,-0.27632 3.88715,-0.4468 0.71874,-0.0797 0.3794,-0.043 1.01794,-0.11059 0,0 -3.21587,-2.27912 -3.21587,-2.27912 v 0 c -0.62461,0.0819 -0.28965,0.039 -1.00501,0.12755 -1.27925,0.17628 -2.55881,0.33048 -3.84253,0.47063 -2.66807,0.34102 -5.3471,0.56203 -8.0209,0.85169 -3.74292,0.35598 -7.50387,0.46151 -11.2572,0.66503 -5.70515,0.15299 -11.41266,0.30243 -17.11925,0.10724 -6.305,-0.18378 -12.6014,-0.52003 -18.88495,-1.08344 -6.39979,-0.56565 -12.79014,-1.22194 -19.174362,-1.94224 -5.548894,-0.64142 -11.098652,-1.37862 -16.68971,-1.516 -5.320813,-0.12357 -10.640404,-0.0912 -15.961648,0.0177 -5.781799,0.0964 -11.563022,0.27126 -17.345702,0.27666 -4.237649,-0.007 -8.475972,-0.002 -12.712885,-0.0899 z" />
    <path
       style="fill:#000000;stroke-width:0.264583"
       id="path5"
       d="m 49.888859,98.695572 c 4.448836,-0.122952 8.897699,-0.0621 13.346456,0.0173 5.84893,0.116909 11.697174,0.206568 17.540285,0.504833 4.375052,0.337764 8.743288,0.787465 13.107395,1.248045 4.594434,0.50655 9.226585,0.29062 13.838195,0.24236 6.1667,-0.075 12.33374,-0.0983 18.50084,-0.0937 4.16132,0.0126 8.32264,0.0163 12.48399,0.0163 3.8024,-0.0294 7.60595,0.0591 11.40728,-0.0455 2.9561,-0.12031 5.91249,-0.2259 8.87057,-0.27991 0.29706,0.0158 0.59413,0.0315 0.8912,0.0473 0,0 -3.13475,-2.293054 -3.13475,-2.293054 v 0 c -0.29226,-0.0033 -0.58451,-0.0066 -0.87677,-0.0099 -2.93473,0.08736 -5.8678,0.216199 -8.80152,0.330983 -3.79459,0.09645 -7.59131,0.02923 -11.38682,0.04806 -4.13495,5.3e-4 -8.26989,0.0062 -12.40471,0.04266 -6.15466,0.04325 -12.30935,0.07988 -18.464,0.122695 -4.65182,0.02713 -9.321493,0.139057 -13.95344,-0.37669 -4.334049,-0.41851 -8.668993,-0.850241 -13.012494,-1.154092 -5.832996,-0.272407 -11.6705,-0.354782 -17.508243,-0.469013 -4.541091,-0.111758 -9.082,-0.151165 -13.623893,-0.209426 z" />
    <path
       style="fill:#000000;stroke-width:0.264583"
       id="path6"
       d="m 80.428744,97.564441 c 1.886818,-1.59114 3.864737,-3.067819 5.759718,-4.648737 1.701252,-1.495956 3.588131,-2.736977 5.540322,-3.874582 1.95993,-0.973008 4.031466,-1.805408 6.174964,-2.279872 0.672579,-0.148873 1.355498,-0.246422 2.033247,-0.369633 2.238105,-0.268174 4.496115,-0.336124 6.712845,0.146073 2.00809,0.436812 3.88401,1.275181 5.73999,2.126168 3.75674,2.066214 -0.4613,-0.262154 -0.64413,-0.317825 -0.39167,-0.119264 0.64653,0.502756 0.96112,0.764789 0.70322,0.585739 1.28139,1.188346 1.82791,1.917279 0.66362,1.079513 1.23176,2.224325 1.63293,3.42737 0.13226,0.427299 0.28604,0.844957 0.45853,1.257242 0,0 3.59061,1.639842 3.59061,1.639842 v 0 c -0.19672,-0.395343 -0.36001,-0.800179 -0.49351,-1.222047 -0.38361,-1.247531 -0.97765,-2.412886 -1.60963,-3.551639 -2.07463,-3.001743 -5.53155,-4.580115 -8.66992,-6.25121 -1.86852,-0.817716 -3.75058,-1.616506 -5.76572,-2.010796 -2.24843,-0.439939 -4.531775,-0.323951 -6.791867,-0.06132 -0.701347,0.12043 -1.408009,0.213183 -2.104038,0.361288 -2.189041,0.465797 -4.299738,1.323854 -6.292567,2.323584 -1.959628,1.153592 -3.842276,2.420702 -5.527281,3.957939 -1.900547,1.583767 -3.884554,3.065352 -5.863711,4.548913 z" />
  </g>
</svg>
